<svg version="1.1" id="Layer_1" xmlns="http://www.w3.org/2000/svg" xmlns:xlink="http://www.w3.org/1999/xlink" x="0px" y="0px"
         viewBox="0 0 500 397" style="enable-background:new 0 0 500 397;" xml:space="preserve">
            <path fill="#e6ecf7" d="M493.6,270.5c-3.1,26.3-9.5,47.4-18.2,64.3c-11.7,22.4-31.6,31.5-49.4,40.9c-5.1,2.7-10.5,5.1-16,7
                c-32.4,11.2-68.7,8.3-97.1,2.3c-20-4.2-40.3-6.7-60.6-7.7c-5.8-0.3-11.6-0.4-17.5-0.4c-9,0-170.7,3.1-210.1-76.7
                c-9.7-19.7-16.4-43.7-18.8-73C-1,144.5,36.3,90.1,84.3,54.6c90.9-67.2,215.4-64.4,305,4.6C448.9,105.1,504.7,174.7,493.6,270.5z"/>
            </svg>